# xmcd
#
# Track frame offsets:
#	150
#	12827
#	25065
#	38260
#	48807
#	60735
#	72805
#	84932
#	97657
#	107917
#	118585
#	131902
#	143820
#	154012
#	164035
#	174092
#	185947
#	198317
#
# Disc length: 2772
#
# Revision: 2
# Processed by: cddbd v1.5.1PL0 Copyright (c) Steve Scherf et al.
# Submitted via: EasyCDDAExtractor 7.0.6.1
# Normalized: r1:DSETVAR1
#
DISCID=e40ad212
DTITLE=Various Artist - Juke Box Giants Sixties
DYEAR=1900
DGENRE=60's
TTITLE0=Amen Corner - If Paradise Is Half As Nice
TTITLE1=Lou Christie - I'm Gonna Make You Mine
TTITLE2=Donovan - Catch The Wind
TTITLE3=Frankie Laine - I Believe
TTITLE4=The Foundations - Baby Now That I've Found You
TTITLE5=Big Dee Irwin and Little Eva - Swinging On A Star
TTITLE6=The Lovin' Spoonful - Summer In The City
TTITLE7=The Migil Five - Mockingbird Hill
TTITLE8=1910 Fruitgum Company - Simon Says
TTITLE9=The Ohio Express - Yummy Yummy Yummy
TTITLE10=The Paper Dolls - Something Here In My Heart
TTITLE11=The Rockin' Berries - He's In Town
TTITLE12=The Searchers - Sugar and Spice
TTITLE13=Sandie Shaw - Girl Don't Come
TTITLE14=Status Quo - Ice in The Sun
TTITLE15=The Tremeloes - Even The Bad Times Are Good
TTITLE16=The Viscounts - Who Put The Bomp
TTITLE17=Mark Wynter - Venus In Blue Jeans
EXTD=
EXTT0=
EXTT1=
EXTT2=
EXTT3=
EXTT4=
EXTT5=
EXTT6=
EXTT7=
EXTT8=
EXTT9=
EXTT10=
EXTT11=
EXTT12=
EXTT13=
EXTT14=
EXTT15=
EXTT16=
EXTT17=
PLAYORDER=
